<svg width="24" height="24" viewBox="0 0 24 24" fill="none" xmlns="http://www.w3.org/2000/svg">
<path d="M15.6095 13.5731L15.6095 13.573L15.6061 13.5765L9.09337 20.0892C9.02712 20.1489 8.95821 20.17 8.90961 20.17C8.84506 20.17 8.78445 20.1478 8.73316 20.0965C8.63842 20.0017 8.63842 19.8383 8.73316 19.7436L15.2532 13.2236C15.9284 12.5483 15.9284 11.4517 15.2532 10.7765L8.73316 4.25647C8.63842 4.16173 8.63842 3.99831 8.73316 3.90357C8.8279 3.80884 8.99132 3.80884 9.08606 3.90357L15.6061 10.4236C16.0231 10.8406 16.2596 11.4037 16.2596 12C16.2596 12.6005 16.0303 13.1604 15.6095 13.5731Z" fill="#999999" stroke="#999999"/>
</svg>
